<svg xmlns="http://www.w3.org/2000/svg" width="32" height="32" viewBox="0 0 32 32">
  <defs>
    <filter id="a" width="1.24" height="1.24" x="-.12" y="-.12" color-interpolation-filters="sRGB">
      <feGaussianBlur stdDeviation=".65"/>
    </filter>
    <filter id="b" width="1.258" height="1.186" x="-.129" y="-.093" style="color-interpolation-filters:sRGB">
      <feGaussianBlur stdDeviation=".674"/>
    </filter>
  </defs>
  <circle cx="21.94" cy="23.9" r="6.5" filter="url(#a)" opacity=".25"/>
  <path fill="none" d="M-.936 1h24v24h-24z" opacity=".2"/>
  <path d="M7.562 5.158a2.3 2.3 0 0 0-.396.041l-.016.002-.015.004c-.817.212-1.342.802-1.596 1.445s-.295 1.344-.295 1.967v10.598l.002-.045s-.063.581.174 1.197c.236.616.89 1.298 1.992 1.315.624.01 1.156-.29 1.58-.672L9 21c.03.017.054.039.084.055l2.473 1.273a2.067 2.067 0 0 0 2.775-.887l1.273-2.472c.077-.15.129-.304.166-.461.419-.049.839-.194 1.188-.504.383-.34.71-.804.803-1.377.093-.574-.07-1.224-.532-1.85-.392-.532-1.922-2.328-3.404-4.062S10.947 7.36 10.947 7.36l-.006-.006-.006-.007c-.861-.931-1.498-1.502-2.087-1.84a2.5 2.5 0 0 0-1.286-.35" style="color:#000;font-style:normal;font-variant:normal;font-weight:400;font-stretch:normal;font-size:medium;line-height:normal;font-family:sans-serif;font-variant-ligatures:normal;font-variant-position:normal;font-variant-caps:normal;font-variant-numeric:normal;font-variant-alternates:normal;font-variant-east-asian:normal;font-feature-settings:normal;font-variation-settings:normal;text-indent:0;text-align:start;text-decoration:none;text-decoration-line:none;text-decoration-style:solid;text-decoration-color:#000;letter-spacing:normal;word-spacing:normal;text-transform:none;writing-mode:lr-tb;direction:ltr;text-orientation:mixed;dominant-baseline:auto;baseline-shift:baseline;text-anchor:start;white-space:normal;shape-padding:0;shape-margin:0;inline-size:0;clip-rule:nonzero;display:inline;overflow:visible;visibility:visible;opacity:.35;isolation:auto;mix-blend-mode:normal;color-interpolation:sRGB;color-interpolation-filters:linearRGB;solid-color:#000;solid-opacity:1;vector-effect:none;fill:#151515;fill-opacity:1;fill-rule:nonzero;stroke:none;stroke-width:1;stroke-linecap:butt;stroke-linejoin:miter;stroke-miterlimit:4;stroke-dasharray:none;stroke-dashoffset:0;stroke-opacity:1;filter:url(#b);color-rendering:auto;image-rendering:auto;shape-rendering:auto;text-rendering:auto;enable-background:accumulate;stop-color:#000"/>
  <g transform="translate(23.54 .97)">
    <rect width="5.901" height="5.901" x="-5.949" y="17.155" ry="1.56" style="opacity:1;fill:#ffb900;fill-opacity:1;stroke:#151515;stroke-width:1;stroke-miterlimit:4;stroke-dasharray:none;stroke-opacity:1" transform="rotate(27.27)"/>
    <path d="M-16.518 3.562c-1.328.344-1.517 1.735-1.517 2.927v10.599s-.178 1.938 1.676 1.966 2.77-3.532 4.26-3.753c1.491-.22 3.713 1.297 4.947.202.64-.567 1.002-1.469.201-2.556-.67-.91-6.26-7.386-6.26-7.386-1.693-1.83-2.456-2.164-3.307-1.999Z" style="fill:#fff;fill-opacity:1;stroke:#151515;stroke-width:1px;stroke-linecap:butt;stroke-linejoin:miter;stroke-opacity:1"/>
  </g>
  <g transform="translate(-14.5 -11)">
    <circle cx="36" cy="34.5" r="6.5" style="fill:#151515;fill-opacity:1;stroke:none;stroke-width:2.16665;stroke-miterlimit:4;stroke-dasharray:none;stroke-opacity:1"/>
    <circle cx="36" cy="34.5" r="5.5" style="fill:#ffb900;fill-opacity:1;stroke:none;stroke-width:1.83333;stroke-miterlimit:4;stroke-dasharray:none;stroke-opacity:1"/>
    <path d="M37 31v2h-2c-2 0-4 3.5-1 5.5V36c0-1 1-1 1-1h2v2l3.5-3z" style="fill:#fff;fill-opacity:1;stroke:none;stroke-width:1;stroke-miterlimit:4;stroke-dasharray:none;stroke-opacity:1"/>
  </g>
</svg>
