<svg xmlns="http://www.w3.org/2000/svg" width="32" height="32" viewBox="0 0 32 32">
  <defs>
    <filter id="a" width="1.258" height="1.186" x="-.129" y="-.093" style="color-interpolation-filters:sRGB">
      <feGaussianBlur stdDeviation=".707"/>
    </filter>
  </defs>
  <path d="M15.333 7.043c-.84-.088-1.537.28-2 .794s-.745 1.157-.963 1.74l-3.703 9.93a2.7 2.7 0 0 0-.238 1.141c.006.66.382 1.527 1.408 1.928.572.223 1.164.135 1.69-.069.046.06.086.124.14.18l1.938 1.994a2.07 2.07 0 0 0 2.914.043l1.994-1.937c.087-.085.16-.178.228-.274.419.11.879.126 1.326-.047.478-.184.945-.505 1.233-1.01.288-.504.362-1.17.148-1.917-.184-.646-1.01-2.88-1.816-5.043s-1.574-4.19-1.574-4.19l-.002-.008-.002-.005c-.48-1.17-.852-1.905-1.266-2.41a2.3 2.3 0 0 0-1.424-.837l-.015-.003z" style="color:#000;font-style:normal;font-variant:normal;font-weight:400;font-stretch:normal;font-size:medium;line-height:normal;font-family:sans-serif;font-variant-ligatures:normal;font-variant-position:normal;font-variant-caps:normal;font-variant-numeric:normal;font-variant-alternates:normal;font-variant-east-asian:normal;font-feature-settings:normal;font-variation-settings:normal;text-indent:0;text-align:start;text-decoration:none;text-decoration-line:none;text-decoration-style:solid;text-decoration-color:#000;letter-spacing:normal;word-spacing:normal;text-transform:none;writing-mode:lr-tb;direction:ltr;text-orientation:mixed;dominant-baseline:auto;baseline-shift:baseline;text-anchor:start;white-space:normal;shape-padding:0;shape-margin:0;inline-size:0;clip-rule:nonzero;display:inline;overflow:visible;visibility:visible;opacity:.35;isolation:auto;mix-blend-mode:normal;color-interpolation:sRGB;color-interpolation-filters:linearRGB;solid-color:#000;solid-opacity:1;vector-effect:none;fill:#151515;fill-opacity:1;fill-rule:nonzero;stroke:none;stroke-width:1;stroke-linecap:butt;stroke-linejoin:miter;stroke-miterlimit:4;stroke-dasharray:none;stroke-dashoffset:0;stroke-opacity:1;filter:url(#a);color-rendering:auto;image-rendering:auto;shape-rendering:auto;text-rendering:auto;enable-background:accumulate;stop-color:#000"/>
  <g transform="translate(-67 2.526)">
    <rect width="5.901" height="5.901" x="66.969" y="-49.509" ry="1.56" style="fill:#ffb900;fill-opacity:1;stroke:#151515;stroke-width:1;stroke-miterlimit:4;stroke-dasharray:none;stroke-opacity:1" transform="rotate(45.84)"/>
    <path d="M82.282 3.984c-1.365-.142-2.028 1.095-2.445 2.213l-3.702 9.93s-.844 1.754.884 2.429 3.83-2.342 5.303-2.029c1.474.314 3.025 2.512 4.564 1.918.797-.308 1.453-1.027 1.082-2.325-.311-1.086-3.378-9.192-3.378-9.192-.947-2.306-1.453-2.802-2.308-2.944Z" style="fill:#fff;fill-opacity:1;stroke:#151515;stroke-width:1px;stroke-linecap:butt;stroke-linejoin:miter;stroke-opacity:1"/>
  </g>
</svg>
