<svg xmlns="http://www.w3.org/2000/svg" width="32" height="32" viewBox="0 0 32 32">
  <defs>
    <filter id="a" width="1.294" height="1.294" x="-.147" y="-.147" color-interpolation-filters="sRGB">
      <feGaussianBlur stdDeviation=".735"/>
    </filter>
  </defs>
  <path d="M13.932 6.004c-.496.03-.887.286-1.185.634-.531-.529-1.098-.464-1.273-.46-.659.04-1.093.484-1.361 1.03-.302-.183-.629-.335-1.01-.307h-.022a1.726 1.726 0 0 0-1.558 2.014v.022l.175 1.16-.044.022c-.337.253-.846.593-1.229 1.16s-.574 1.404-.285 2.32c.315 1.002.908 2.044 1.58 2.869.336.412.699.752 1.076 1.029s.77.506 1.273.503l6.212-.022c.353 0 .68-.305.702-.657 0 0 1.34-2.277.944-7.924v-.022c-.133-1.517-.641-2.24-1.822-2.167h-.022c-.176.012-.303.137-.46.197-.191-.809-.808-1.458-1.691-1.401" filter="url(#a)" opacity=".3" transform="translate(-.053 -.322)scale(1.3467)"/>
  <g stroke-width=".701">
    <path d="M18.574 7.004c-.661.04-1.183.382-1.58.846-.708-.706-1.464-.619-1.698-.613-.877.053-1.457.644-1.814 1.372-.402-.243-.839-.445-1.347-.409h-.029a2.3 2.3 0 0 0-2.078 2.686v.029l.234 1.547q-.03.014-.058.03c-.45.336-1.129.79-1.639 1.546s-.766 1.872-.38 3.094c.42 1.335 1.21 2.725 2.107 3.824.448.55.93 1.002 1.434 1.371s1.028.676 1.697.672l8.282-.03c.472.002.907-.406.937-.875 0 0 1.787-3.037 1.258-10.566v-.03c-.177-2.022-.854-2.985-2.429-2.889h-.029c-.235.016-.404.184-.615.263-.253-1.078-1.076-1.944-2.253-1.868"/>
    <path fill="#fefefe" d="M15.351 8.185c-.736.045-1.364.755-1.317 1.489l.091 1.3c.023.331-.286.4-.322.146l-.114-.804c-.1-.693-.792-1.248-1.492-1.197-.77.07-1.39.874-1.259 1.635l.495 3.08c.004.12-.03.73-.03.73l-.643-1.313c-.94.707-2.309 1.61-1.679 3.609.746 2.365 2.976 5.215 4.342 5.206l8.282-.03c1.603-3.541 1.303-6.85 1.288-9.193l-.01-1.55c-.006-.887-.577-1.816-1.464-1.75-.6.034-1.15.495-1.288 1.08l-.165.877c-.05.261-.136.154-.117-.059l.186-2.015c.051-.792-.698-1.54-1.493-1.489-.687.043-1.29.657-1.317 1.343l-.156 1.402c-.037.328-.244.336-.264-.029l-.061-1.125c-.03-.744-.747-1.39-1.493-1.343z"/>
  </g>
  <path fill="none" d="M4 4h24v24H4z" opacity=".2"/>
</svg>
