<svg xmlns="http://www.w3.org/2000/svg" width="32" height="32" viewBox="0 0 32 32">
  <defs>
    <filter id="b" width="1.444" height="1.444" x="-.222" y="-.222" color-interpolation-filters="sRGB">
      <feGaussianBlur stdDeviation="1.202"/>
    </filter>
    <filter id="a" width="1.294" height="1.294" x="-.147" y="-.147" color-interpolation-filters="sRGB">
      <feGaussianBlur stdDeviation=".735"/>
    </filter>
  </defs>
  <path d="M13.932 6.004c-.496.03-.887.286-1.185.634-.531-.529-1.098-.464-1.273-.46-.659.04-1.093.484-1.361 1.03-.302-.183-.629-.335-1.01-.307h-.022a1.726 1.726 0 0 0-1.558 2.014v.022l.175 1.16-.044.022c-.337.253-.846.593-1.229 1.16s-.574 1.404-.285 2.32c.315 1.002.908 2.044 1.58 2.869.336.412.699.752 1.076 1.029s.77.506 1.273.503l6.212-.022c.353 0 .68-.305.702-.657 0 0 1.34-2.277.944-7.924v-.022c-.133-1.517-.641-2.24-1.822-2.167h-.022c-.176.012-.303.137-.46.197-.191-.809-.808-1.458-1.691-1.401" filter="url(#a)" opacity=".3" transform="translate(-.051 -.359)scale(1.3467)"/>
  <g stroke-width=".701">
    <path d="M18.575 6.967c-.66.04-1.182.382-1.58.846-.708-.706-1.464-.619-1.697-.613-.878.053-1.458.644-1.815 1.372-.402-.243-.838-.445-1.346-.409h-.03a2.3 2.3 0 0 0-2.077 2.686v.029l.234 1.547q-.03.014-.059.03c-.449.336-1.128.79-1.638 1.546s-.766 1.872-.381 3.094c.42 1.335 1.21 2.725 2.107 3.824.448.55.931 1.002 1.434 1.371s1.028.676 1.698.672l8.282-.03c.471.002.907-.406.936-.875 0 0 1.787-3.037 1.259-10.566v-.03c-.177-2.022-.855-2.985-2.43-2.889h-.028c-.236.016-.404.184-.615.263-.254-1.078-1.077-1.944-2.254-1.868"/>
    <path fill="#fefefe" d="M15.353 8.148c-.736.045-1.364.755-1.317 1.489l.09 1.3c.024.331-.285.4-.321.146l-.114-.804c-.1-.693-.792-1.248-1.493-1.197-.77.07-1.39.874-1.258 1.635l.494 3.08c.005.12-.03.73-.03.73l-.643-1.313c-.94.707-2.308 1.61-1.678 3.609.745 2.365 2.976 5.215 4.341 5.206l8.283-.03c1.602-3.541 1.303-6.85 1.287-9.193l-.01-1.55c-.006-.887-.576-1.816-1.463-1.75-.6.034-1.151.495-1.288 1.08l-.165.877c-.05.261-.137.154-.117-.059l.185-2.015c.052-.792-.698-1.54-1.492-1.489-.687.043-1.29.657-1.317 1.343l-.157 1.402c-.036.328-.243.336-.263-.029l-.062-1.125c-.03-.744-.747-1.39-1.492-1.343z"/>
  </g>
  <path fill="none" d="M4.001 3.963h24v24h-24z" opacity=".2"/>
  <path fill="none" d="M4 3.962h24v24H4z" opacity=".2"/>
  <g transform="translate(0 -1020.4)">
    <path d="M23.468 1037.4a6.5 6.5 0 1 0 0 13 6.5 6.5 0 0 0 0-13" color="#000" filter="url(#b)" opacity=".2" style="text-decoration-line:none;text-indent:0;text-transform:none"/>
    <circle cx="23.468" cy="1042.9" r="6.5" fill="#151515"/>
    <circle cx="23.468" cy="1043" r="5" fill="#fff"/>
    <path fill="#ed1515" d="M20.233 1038.5c-2.261 1.63-2.95 4.766-1.526 7.232a5.5 5.5 0 1 0 2.013-7.513c-.164.095-.336.172-.487.281m1.487 1.45a3.48 3.48 0 0 1 4.146.494l-5.792 3.344a3.48 3.48 0 0 1 1.646-3.837zm-.646 5.57 5.792-3.344a3.48 3.48 0 0 1-1.646 3.837 3.48 3.48 0 0 1-4.146-.493z"/>
  </g>
</svg>
