<svg xmlns="http://www.w3.org/2000/svg" width="32" height="32" viewBox="0 0 32 32">
  <defs>
    <filter id="b" width="1.24" height="1.24" x="-.12" y="-.12" color-interpolation-filters="sRGB">
      <feGaussianBlur stdDeviation=".65"/>
    </filter>
    <filter id="a" width="1.258" height="1.186" x="-.129" y="-.093" color-interpolation-filters="sRGB">
      <feGaussianBlur stdDeviation=".674"/>
    </filter>
  </defs>
  <path fill="#151515" d="M-29.666 6.51a2.3 2.3 0 0 0-.396.04l-.016.003-.016.004c-.817.211-1.341.802-1.595 1.445s-.295 1.344-.295 1.967v10.598l.002-.045s-.063.581.173 1.197c.237.616.891 1.298 1.993 1.315.624.01 1.155-.29 1.58-.672q.003-.005.008-.01c.029.017.053.04.084.055l2.472 1.273a2.067 2.067 0 0 0 2.776-.887l1.273-2.472c.077-.15.128-.304.166-.461.418-.049.839-.195 1.188-.504.382-.34.709-.804.802-1.377.094-.574-.07-1.224-.531-1.85-.393-.532-1.922-2.328-3.404-4.062s-2.88-3.354-2.88-3.354l-.005-.006-.006-.007c-.862-.931-1.498-1.502-2.088-1.84a2.5 2.5 0 0 0-1.285-.35z" color="#000" filter="url(#a)" opacity=".35" style="font-feature-settings:normal;font-variant-alternates:normal;font-variant-caps:normal;font-variant-east-asian:normal;font-variant-ligatures:normal;font-variant-numeric:normal;font-variant-position:normal;font-variation-settings:normal;inline-size:0;isolation:auto;mix-blend-mode:normal;shape-margin:0;shape-padding:0;text-decoration-color:#000;text-decoration-line:none;text-decoration-style:solid;text-indent:0;text-orientation:mixed;text-transform:none;white-space:normal" transform="translate(37.394 -1.47)"/>
  <g stroke="#151515" transform="translate(23.541 1.008)">
    <rect width="5.902" height="5.902" x="-5.949" y="17.155" fill="#ffb900" ry="1.56" transform="rotate(27.27)"/>
    <path fill="#fff" d="M-16.518 3.562c-1.328.344-1.517 1.735-1.517 2.927v10.598s-.178 1.938 1.676 1.967 2.77-3.532 4.26-3.753c1.491-.221 3.713 1.297 4.947.202.64-.567 1.002-1.47.201-2.556-.67-.91-6.26-7.386-6.26-7.386-1.693-1.83-2.456-2.165-3.307-1.999z"/>
  </g>
  <circle cx="21.94" cy="23.9" r="6.5" filter="url(#b)" opacity=".25"/>
  <circle cx="21.5" cy="23.5" r="6.5" fill="#fff"/>
  <path fill="none" d="M-.936 1h24v24h-24z" opacity=".2"/>
  <g transform="translate(-25 -4)">
    <circle cx="46.5" cy="27.5" r="6.5" fill="#151515"/>
    <circle cx="46.5" cy="27.492" r="5.5" fill="#ffb900"/>
  </g>
  <path fill="#fff" d="M21.279 19.002c-1.066.052-2.092.51-2.363 1.244l.465 1.148c1.965-2.42 3.83-.39 2.716.641-2.037 1.888-1.48 3.117-1.48 3.117h1.326s-.243-.228.22-1.216c.332-.708 2.59-1.956 1.725-3.735-.435-.896-1.543-1.25-2.61-1.2m.035 7.121a.94.94 0 0 0-.94.94.94.94 0 0 0 .94.939.94.94 0 0 0 .938-.94.94.94 0 0 0-.938-.939"/>
</svg>
