<svg xmlns="http://www.w3.org/2000/svg" width="32" height="32" viewBox="0 0 32 32">
  <defs>
    <filter id="a" width="1.242" height="1.238" x="-.121" y="-.119" color-interpolation-filters="sRGB">
      <feGaussianBlur stdDeviation=".737"/>
    </filter>
  </defs>
  <path d="m166.38 304.59-.707.707-2.092 2.094 2.63 2.629-7.042-.018v4l7.053.018-2.64 2.64 2.8 2.801 7.412-7.459z" color="#000" enable-background="new" filter="url(#a)" opacity=".35" style="isolation:auto;mix-blend-mode:normal;text-decoration-color:#000;text-decoration-line:none;text-decoration-style:solid;text-indent:0;text-transform:none;white-space:normal" transform="matrix(-1 0 0 1 183.38 -296.04)"/>
  <path fill="#151515" stroke="#151515" stroke-linecap="round" stroke-linejoin="round" stroke-width="2" d="m16 8.96 1.385 1.386-3.635 3.635 8.462-.021v2l-8.462.02 3.635 3.635L16 21l-6-6.04z" enable-background="new"/>
  <path fill="#fff" d="m16 8.96 1.385 1.386-3.635 3.635 8.462-.021v2l-8.462.02 3.635 3.635L16 21l-6-6.04z" enable-background="new"/>
  <path fill="none" d="M4.38 3.96h24v24h-24z" opacity=".2"/>
</svg>
