<svg xmlns="http://www.w3.org/2000/svg" width="32" height="32" viewBox="0 0 32 32">
  <defs>
    <filter id="a" width="1.257" height="1.257" x="-.128" y="-.128" color-interpolation-filters="sRGB">
      <feGaussianBlur stdDeviation="1.177"/>
    </filter>
  </defs>
  <g transform="translate(-320.05 -741.5)">
    <path d="M336.12 747.44c-6.075 0-11 4.925-11 11s4.925 11 11 11 11-4.925 11-11-4.925-11-11-11" color="#000" filter="url(#a)" opacity=".2" style="block-progression:tb;text-decoration-line:none;text-indent:0;text-transform:none"/>
    <circle cx="375" cy="487.36" r="11" fill="#151515" transform="translate(-38.875 270.06)"/>
    <circle cx="336.12" cy="757.42" r="9" fill="#fff"/>
    <path fill="#ed1515" d="M331.12 748.78c-4.783 2.761-6.422 8.877-3.66 13.66s8.877 6.422 13.66 3.66 6.422-8.877 3.66-13.66-8.877-6.422-13.66-3.66m1 1.732c3.532-2.04 7.974-1.076 10.374 2.093l-13.748 7.938c-1.545-3.663-.158-7.992 3.374-10.031zm-2.374 11.763 13.748-7.937c1.544 3.662.158 7.991-3.374 10.03-3.532 2.04-7.974 1.076-10.374-2.093z"/>
  </g>
</svg>
