<svg xmlns="http://www.w3.org/2000/svg" width="32" height="32" viewBox="0 0 32 32">
  <defs>
    <filter id="a" width="1.298" height="1.29" x="-.149" y="-.145" color-interpolation-filters="sRGB">
      <feGaussianBlur stdDeviation="1.087"/>
    </filter>
  </defs>
  <path d="M19.124 5.642c-.68.042-1.144.48-1.47 1.022-.357-1.332-2.885-1.414-3.39.473-.398-.439-.907-.744-1.546-.698h-.025A1.984 1.984 0 0 0 10.9 8.757l.997 5.957c-.378-.266-.835-.721-1.172-.872-.78-.35-1.494-.394-2.069-.225-1.15.339-1.495 1.446-1.495 1.446l-.2.573.5.35c1.097.74 2.212 2.538 3.264 4.212.526.837 1.05 1.628 1.645 2.268.596.64 1.31 1.177 2.218 1.171l7.054-.025h.773l.025-.772s.07-1.392.2-3.041c.128-1.65.326-3.571.547-4.462l1.197-4.81a1.99 1.99 0 0 0-2.069-2.493c-.418.024-.787.209-1.097.45l.025-.724a1.987 1.987 0 0 0-2.118-2.118z" filter="url(#a)" opacity=".3"/>
  <g stroke-width=".638">
    <path d="M13.889 6.56c-.397-.44-.906-.745-1.545-.698h-.025a1.984 1.984 0 0 0-1.795 2.318l.997 5.957c-.377-.266-.835-.722-1.171-.872-.78-.35-1.494-.394-2.07-.225-1.15.338-1.495 1.446-1.495 1.446l-.2.573.5.35c1.097.74 2.212 2.538 3.265 4.211.526.837 1.049 1.63 1.645 2.269.595.64 1.31 1.177 2.218 1.171l7.054-.025h.772l.025-.772s.071-1.392.2-3.041c.128-1.65.327-3.572.548-4.462l1.196-4.81c.346-1.322-.706-2.594-2.068-2.493-.418.024-.787.208-1.097.449l.025-.723a1.987 1.987 0 0 0-2.119-2.119c-.679.042-1.143.48-1.47 1.022-.357-1.331-2.884-1.413-3.39.474"/>
    <path fill="#fefefe" d="M15.609 5.862c-.627.038-1.162.644-1.122 1.271l.324 5.658c.016.283-.238.34-.274.125l-.872-5.234c-.086-.592-.675-1.066-1.271-1.022-.657.059-1.185.746-1.072 1.395l1.196 7.179q.005.153.05.299c-.047.19-.075.324-.075.324-3.988-3.988-4.96-1.122-4.96-1.122 2.71 1.83 4.354 7.543 6.68 7.528l7.054-.025s.263-5.627.773-7.677l1.196-4.81c.191-.734-.49-1.552-1.246-1.496-.512.03-.98.423-1.097.922l-1.022 4.063c-.055.22-.109.132-.1-.05l.3-6.057c.043-.676-.595-1.315-1.272-1.271-.585.036-1.098.561-1.121 1.147l-.275 5.533c-.013.281-.207.287-.224-.025L16.88 7.01c-.025-.636-.637-1.187-1.271-1.147z"/>
  </g>
  <path fill="none" d="M4 4.06h24v24H4z" opacity=".2"/>
</svg>
