<svg xmlns="http://www.w3.org/2000/svg" width="32" height="32" viewBox="0 0 32 32">
  <defs>
    <filter id="a" width="1.329" height="1.328" x="-.165" y="-.164" color-interpolation-filters="sRGB">
      <feGaussianBlur stdDeviation="1.218"/>
    </filter>
  </defs>
  <path d="M260.84 498.56c-.557.098-.949.741-.781 1.281l1.062 3.188c.04.15.116.29.219.406l12.594 12.625c.16.156.372.257.594.281.304.043.626-.064.843-.281l2.125-2.125c.385-.372.385-1.066 0-1.438l-12.594-12.625a1 1 0 0 0-.406-.218l-3.187-1.063a1 1 0 0 0-.469-.031" color="#000" filter="url(#a)" opacity=".2" style="block-progression:tb;text-decoration-line:none;text-indent:0;text-transform:none" transform="matrix(1 0 0 -1 -257.988 529.57)"/>
  <path fill="#151515" d="M88.531 860.56a1 1 0 0 0-.594.281l-12.594 12.625a1 1 0 0 0-.218.406l-1.063 3.188a1 1 0 0 0 1.25 1.25l3.188-1.062a1 1 0 0 0 .406-.22L91.5 864.405a1 1 0 0 0 0-1.438l-2.125-2.125a1 1 0 0 0-.844-.281" color="#000" style="block-progression:tb;text-decoration-line:none;text-indent:0;text-transform:none" transform="translate(-71.988 -848.33)"/>
  <path fill="#fff" d="M16.668 13.23 4.074 25.855l-1.062 3.188 3.187-1.063 12.594-12.625zm.031 1.438.688.687-1.313 1.313-.687-.688z"/>
  <g style="opacity:1">
    <path d="M3.88 20.232a1 1 0 0 0-1 1v3a1 1 0 0 0 1 1h3a1 1 0 0 0 1-1v-3a1 1 0 0 0-1-1zm1 2h1v1h-1z" style="color:#000;font-style:normal;font-variant:normal;font-weight:400;font-stretch:normal;font-size:medium;line-height:normal;font-family:sans-serif;font-variant-ligatures:normal;font-variant-position:normal;font-variant-caps:normal;font-variant-numeric:normal;font-variant-alternates:normal;font-variant-east-asian:normal;font-feature-settings:normal;font-variation-settings:normal;text-indent:0;text-align:start;text-decoration:none;text-decoration-line:none;text-decoration-style:solid;text-decoration-color:#000;letter-spacing:normal;word-spacing:normal;text-transform:none;writing-mode:lr-tb;direction:ltr;text-orientation:mixed;dominant-baseline:auto;baseline-shift:baseline;text-anchor:start;white-space:normal;shape-padding:0;shape-margin:0;inline-size:0;clip-rule:nonzero;display:inline;overflow:visible;visibility:visible;isolation:auto;mix-blend-mode:normal;color-interpolation:sRGB;color-interpolation-filters:linearRGB;solid-color:#000;solid-opacity:1;vector-effect:none;fill:#151515;fill-opacity:1;fill-rule:nonzero;stroke:none;stroke-linecap:round;stroke-linejoin:round;stroke-miterlimit:4;stroke-dasharray:none;stroke-dashoffset:0;stroke-opacity:1;paint-order:stroke fill markers;color-rendering:auto;image-rendering:auto;shape-rendering:auto;text-rendering:auto;enable-background:accumulate;stop-color:#000;stop-opacity:1" transform="scale(1.06582)rotate(-45 -1.483 1.51)"/>
    <path d="M3.88 21.232h3v3h-3z" style="color:#000;font-style:normal;font-variant:normal;font-weight:400;font-stretch:normal;font-size:medium;line-height:normal;font-family:sans-serif;font-variant-ligatures:normal;font-variant-position:normal;font-variant-caps:normal;font-variant-numeric:normal;font-variant-alternates:normal;font-variant-east-asian:normal;font-feature-settings:normal;font-variation-settings:normal;text-indent:0;text-align:start;text-decoration:none;text-decoration-line:none;text-decoration-style:solid;text-decoration-color:#000;letter-spacing:normal;word-spacing:normal;text-transform:none;writing-mode:lr-tb;direction:ltr;text-orientation:mixed;dominant-baseline:auto;baseline-shift:baseline;text-anchor:start;white-space:normal;shape-padding:0;shape-margin:0;inline-size:0;clip-rule:nonzero;display:inline;overflow:visible;visibility:visible;isolation:auto;mix-blend-mode:normal;color-interpolation:sRGB;color-interpolation-filters:linearRGB;solid-color:#000;solid-opacity:1;vector-effect:none;fill:#ffb900;fill-opacity:1;fill-rule:nonzero;stroke:none;stroke-width:2;stroke-linecap:round;stroke-linejoin:round;stroke-miterlimit:4;stroke-dasharray:none;stroke-dashoffset:0;stroke-opacity:1;paint-order:stroke fill markers;color-rendering:auto;image-rendering:auto;shape-rendering:auto;text-rendering:auto;enable-background:accumulate;stop-color:#000;stop-opacity:1" transform="scale(1.06582)rotate(-45 -1.483 1.51)"/>
  </g>
</svg>
