<svg xmlns="http://www.w3.org/2000/svg" width="32" height="32" viewBox="0 0 32 32">
  <defs>
    <filter id="a" width="1.3" height="1.288" x="-.15" y="-.144" color-interpolation-filters="sRGB">
      <feGaussianBlur stdDeviation="1.02"/>
    </filter>
  </defs>
  <path d="M13.539 7.075c-.566 0-1.12.279-1.473.749-.352.47-.524 1.115-.524 1.847v5.592c-.442-.327-.961-.825-1.348-.999-.782-.35-1.496-.418-2.072-.25-1.152.339-1.523 1.449-1.523 1.449l-.174.574.499.35c1.099.741 2.213 2.561 3.27 4.243.529.84 1.05 1.63 1.648 2.272s1.335 1.179 2.246 1.173l7.04-.025.724-.025.075-.699.798-7.988c.119-1.146-.576-2.122-1.472-2.421-.433-.145-.93-.07-1.373.124-.292-.446-.673-.784-1.149-.898-.405-.098-.836-.012-1.223.15-.277-.397-.64-.685-1.073-.824-.279-.09-.597-.02-.899.025V9.67c0-.732-.172-1.377-.524-1.847a1.86 1.86 0 0 0-1.473-.749z" filter="url(#a)" opacity=".3"/>
  <g stroke-width=".799">
    <path d="M13.286 6c-.566 0-1.12.279-1.473.749-.352.47-.524 1.115-.524 1.847v5.592c-.442-.327-.961-.825-1.348-.999-.782-.35-1.496-.418-2.072-.25-1.152.339-1.523 1.449-1.523 1.449l-.174.574.499.35c1.099.741 2.213 2.561 3.27 4.243.529.84 1.05 1.63 1.648 2.272s1.335 1.179 2.246 1.173l7.04-.025.724-.025.075-.699.798-7.988c.119-1.146-.576-2.122-1.472-2.421-.433-.145-.93-.07-1.373.124-.292-.446-.673-.783-1.149-.898-.405-.098-.836-.012-1.223.15-.277-.397-.64-.685-1.073-.824-.279-.09-.597-.02-.899.025V8.596c0-.732-.172-1.377-.524-1.847A1.86 1.86 0 0 0 13.286 6z"/>
    <path fill="#fefefe" d="m13.818 22.211 7.057-.045.798-7.988c.168-1.62-1.839-2.293-2.396-.8.007-1.795-1.84-2.02-2.397-.798.07-1.483-1.815-2.058-2.396-.799V8.586c0-2.397-2.397-2.397-2.397 0v7.19C8.093 11.78 7.114 14.65 7.114 14.65c2.714 1.833 4.374 7.575 6.704 7.56"/>
  </g>
  <path fill="none" d="M4 4h24v24H4z" opacity=".2"/>
</svg>
