<svg xmlns="http://www.w3.org/2000/svg" width="32" height="32" viewBox="0 0 32 32">
  <g style="fill:#ffba00;fill-opacity:1">
    <path d="m56.828 1030.388 13-8.5 13 8.5-13 8.5z" style="opacity:1;fill:#ffba00;fill-opacity:1;stroke-width:2.98558" transform="matrix(.33828 0 0 .33828 -12.423 -342.661)"/>
    <g style="fill:#ffba00;fill-opacity:1">
      <path d="M32.256 1030.388h13v13h-13zM45.256 1030.388h13v13h-13z" style="fill:#ffba00;fill-opacity:1;stroke-width:3.1048" transform="matrix(.33828 0 0 .33828 -4.11 -342.661)"/>
    </g>
    <path d="m56.828 1043.388 13 8.5 13-8.5-13-8.5z" style="opacity:1;fill:#ffba00;fill-opacity:1;stroke-width:2.98558" transform="matrix(.33828 0 0 .33828 -12.423 -342.661)"/>
  </g>
  <g style="fill:#ffba00;fill-opacity:1">
    <path d="m56.828 1030.388 13-8.5 13 8.5-13 8.5z" style="opacity:1;fill:#ffba00;fill-opacity:1;stroke-width:2.98558" transform="matrix(.33828 0 0 .33828 -50.386 -342.661)"/>
    <g style="fill:#ffba00;fill-opacity:1">
      <path d="M32.256 1030.388h13v13h-13zM45.256 1030.388h13v13h-13z" style="fill:#ffba00;fill-opacity:1;stroke-width:3.1048" transform="matrix(.33828 0 0 .33828 -42.074 -342.661)"/>
    </g>
    <path d="m56.828 1043.388 13 8.5 13-8.5-13-8.5z" style="opacity:1;fill:#ffba00;fill-opacity:1;stroke-width:2.98558" transform="matrix(.33828 0 0 .33828 -50.386 -342.661)"/>
  </g>
  <g style="fill:#ffba00;fill-opacity:1">
    <path d="m56.828 1030.388 13-8.5 13 8.5-13 8.5z" style="opacity:1;fill:#ffba00;fill-opacity:1;stroke-width:2.98558" transform="matrix(.33828 0 0 .33828 -40.784 -342.661)"/>
    <g style="fill:#ffba00;fill-opacity:1">
      <path d="M32.256 1030.388h13v13h-13zM45.256 1030.388h13v13h-13z" style="fill:#ffba00;fill-opacity:1;stroke-width:3.1048" transform="matrix(.33828 0 0 .33828 -32.471 -342.661)"/>
    </g>
    <path d="m56.828 1043.388 13 8.5 13-8.5-13-8.5z" style="opacity:1;fill:#ffba00;fill-opacity:1;stroke-width:2.98558" transform="matrix(.33828 0 0 .33828 -40.784 -342.661)"/>
  </g>
  <g style="fill:#ffba00;fill-opacity:1">
    <path d="m56.828 1030.388 13-8.5 13 8.5-13 8.5z" style="opacity:1;fill:#ffba00;fill-opacity:1;stroke-width:2.98558" transform="matrix(.33828 0 0 .33828 -45.585 -334.761)"/>
    <g style="fill:#ffba00;fill-opacity:1">
      <path d="M32.256 1030.388h13v13h-13zM45.256 1030.388h13v13h-13z" style="fill:#ffba00;fill-opacity:1;stroke-width:3.1048" transform="matrix(.33828 0 0 .33828 -37.273 -334.761)"/>
    </g>
    <path d="m56.828 1043.388 13 8.5 13-8.5-13-8.5z" style="opacity:1;fill:#ffba00;fill-opacity:1;stroke-width:2.98558" transform="matrix(.33828 0 0 .33828 -45.585 -334.761)"/>
  </g>
  <g style="fill:#ffba00;fill-opacity:1">
    <path d="m56.828 1030.388 13-8.5 13 8.5-13 8.5z" style="opacity:1;fill:#ffba00;fill-opacity:1;stroke-width:2.98558" transform="matrix(.33828 0 0 .33828 -55.187 -334.761)"/>
    <g style="fill:#ffba00;fill-opacity:1">
      <path d="M32.256 1030.388h13v13h-13zM45.256 1030.388h13v13h-13z" style="fill:#ffba00;fill-opacity:1;stroke-width:3.1048" transform="matrix(.33828 0 0 .33828 -46.875 -334.761)"/>
    </g>
    <path d="m56.828 1043.388 13 8.5 13-8.5-13-8.5z" style="opacity:1;fill:#ffba00;fill-opacity:1;stroke-width:2.98558" transform="matrix(.33828 0 0 .33828 -55.187 -334.761)"/>
  </g>
  <g style="fill:#ffba00;fill-opacity:1">
    <path d="m56.828 1030.388 13-8.5 13 8.5-13 8.5z" style="opacity:1;fill:#ffba00;fill-opacity:1;stroke-width:2.98558" transform="matrix(.33828 0 0 .33828 -35.982 -334.761)"/>
    <g style="fill:#ffba00;fill-opacity:1">
      <path d="M32.256 1030.388h13v13h-13zM45.256 1030.388h13v13h-13z" style="fill:#ffba00;fill-opacity:1;stroke-width:3.1048" transform="matrix(.33828 0 0 .33828 -27.67 -334.761)"/>
    </g>
    <path d="m56.828 1043.388 13 8.5 13-8.5-13-8.5z" style="opacity:1;fill:#ffba00;fill-opacity:1;stroke-width:2.98558" transform="matrix(.33828 0 0 .33828 -35.982 -334.761)"/>
  </g>
  <g style="fill:#ffba00;fill-opacity:1">
    <path d="m56.828 1030.388 13-8.5 13 8.5-13 8.5z" style="opacity:1;fill:#ffba00;fill-opacity:1;stroke-width:2.98558" transform="matrix(.33828 0 0 .33828 -50.386 -326.861)"/>
    <g style="fill:#ffba00;fill-opacity:1">
      <path d="M32.256 1030.388h13v13h-13zM45.256 1030.388h13v13h-13z" style="fill:#ffba00;fill-opacity:1;stroke-width:3.1048" transform="matrix(.33828 0 0 .33828 -42.074 -326.861)"/>
    </g>
    <path d="m56.828 1043.388 13 8.5 13-8.5-13-8.5z" style="opacity:1;fill:#ffba00;fill-opacity:1;stroke-width:2.98558" transform="matrix(.33828 0 0 .33828 -50.386 -326.861)"/>
  </g>
  <g style="fill:#ffba00;fill-opacity:1">
    <path d="m56.828 1030.388 13-8.5 13 8.5-13 8.5z" style="opacity:1;fill:#ffba00;fill-opacity:1;stroke-width:2.98558" transform="matrix(.33828 0 0 .33828 -40.784 -326.861)"/>
    <g style="fill:#ffba00;fill-opacity:1">
      <path d="M32.256 1030.388h13v13h-13zM45.256 1030.388h13v13h-13z" style="fill:#ffba00;fill-opacity:1;stroke-width:3.1048" transform="matrix(.33828 0 0 .33828 -32.471 -326.861)"/>
    </g>
    <path d="m56.828 1043.388 13 8.5 13-8.5-13-8.5z" style="opacity:1;fill:#ffba00;fill-opacity:1;stroke-width:2.98558" transform="matrix(.33828 0 0 .33828 -40.784 -326.861)"/>
  </g>
  <g style="fill:#7bba00;fill-opacity:1">
    <path d="m56.828 1030.388 13-8.5 13 8.5-13 8.5z" style="opacity:1;fill:#7bba00;fill-opacity:1;stroke-width:2.98558" transform="matrix(.2 0 0 .2 -31.128 -199.278)"/>
    <g style="fill:#7bba00;fill-opacity:1">
      <path d="M32.256 1030.388h13v13h-13zM45.256 1030.388h13v13h-13z" style="fill:#7bba00;fill-opacity:1;stroke-width:3.1048" transform="matrix(.2 0 0 .2 -26.213 -199.278)"/>
    </g>
    <path d="m56.828 1043.388 13 8.5 13-8.5-13-8.5z" style="opacity:1;fill:#7bba00;fill-opacity:1;stroke-width:2.98558" transform="matrix(.2 0 0 .2 -31.128 -199.278)"/>
  </g>
</svg>
