<svg xmlns="http://www.w3.org/2000/svg" width="32" height="32" viewBox="0 0 32 32">
  <g style="fill:#ffba00;fill-opacity:1">
    <path d="m56.828 1030.388 13-8.5 13 8.5-13 8.5z" style="opacity:1;fill:#ffba00;fill-opacity:1;stroke-width:2.98558" transform="matrix(.33828 0 0 .33828 -2.82 -342.661)"/>
    <g style="fill:#ffba00;fill-opacity:1">
      <path d="M32.256 1030.388h13v13h-13zM45.256 1030.388h13v13h-13z" style="fill:#ffba00;fill-opacity:1;stroke-width:3.1048" transform="matrix(.33828 0 0 .33828 5.492 -342.661)"/>
    </g>
    <path d="m56.828 1043.388 13 8.5 13-8.5-13-8.5z" style="opacity:1;fill:#ffba00;fill-opacity:1;stroke-width:2.98558" transform="matrix(.33828 0 0 .33828 -2.82 -342.661)"/>
  </g>
  <g style="fill:#ffba00;fill-opacity:1">
    <path d="m56.828 1030.388 13-8.5 13 8.5-13 8.5z" style="opacity:1;fill:#ffba00;fill-opacity:1;stroke-width:2.98558" transform="matrix(.33828 0 0 .33828 -17.224 -334.761)"/>
    <g style="fill:#ffba00;fill-opacity:1">
      <path d="M32.256 1030.388h13v13h-13zM45.256 1030.388h13v13h-13z" style="fill:#ffba00;fill-opacity:1;stroke-width:3.1048" transform="matrix(.33828 0 0 .33828 -8.912 -334.761)"/>
    </g>
    <path d="m56.828 1043.388 13 8.5 13-8.5-13-8.5z" style="opacity:1;fill:#ffba00;fill-opacity:1;stroke-width:2.98558" transform="matrix(.33828 0 0 .33828 -17.224 -334.761)"/>
  </g>
  <g style="fill:#ffba00;fill-opacity:1">
    <path d="m56.828 1030.388 13-8.5 13 8.5-13 8.5z" style="opacity:1;fill:#ffba00;fill-opacity:1;stroke-width:2.98558" transform="matrix(.33828 0 0 .33828 1.98 -334.761)"/>
    <g style="fill:#ffba00;fill-opacity:1">
      <path d="M32.256 1030.388h13v13h-13zM45.256 1030.388h13v13h-13z" style="fill:#ffba00;fill-opacity:1;stroke-width:3.1048" transform="matrix(.33828 0 0 .33828 10.293 -334.761)"/>
    </g>
    <path d="m56.828 1043.388 13 8.5 13-8.5-13-8.5z" style="opacity:1;fill:#ffba00;fill-opacity:1;stroke-width:2.98558" transform="matrix(.33828 0 0 .33828 1.98 -334.761)"/>
  </g>
  <g style="fill:#ffba00;fill-opacity:1">
    <path d="m56.828 1030.388 13-8.5 13 8.5-13 8.5z" style="opacity:1;fill:#ffba00;fill-opacity:1;stroke-width:2.98558" transform="matrix(.33828 0 0 .33828 -12.423 -326.861)"/>
    <g style="fill:#ffba00;fill-opacity:1">
      <path d="M32.256 1030.388h13v13h-13zM45.256 1030.388h13v13h-13z" style="fill:#ffba00;fill-opacity:1;stroke-width:3.1048" transform="matrix(.33828 0 0 .33828 -4.11 -326.861)"/>
    </g>
    <path d="m56.828 1043.388 13 8.5 13-8.5-13-8.5z" style="opacity:1;fill:#ffba00;fill-opacity:1;stroke-width:2.98558" transform="matrix(.33828 0 0 .33828 -12.423 -326.861)"/>
  </g>
  <g style="fill:#ffba00;fill-opacity:1">
    <path d="m56.828 1030.388 13-8.5 13 8.5-13 8.5z" style="opacity:1;fill:#ffba00;fill-opacity:1;stroke-width:2.98558" transform="matrix(.33828 0 0 .33828 -2.82 -326.861)"/>
    <g style="fill:#ffba00;fill-opacity:1">
      <path d="M32.256 1030.388h13v13h-13zM45.256 1030.388h13v13h-13z" style="fill:#ffba00;fill-opacity:1;stroke-width:3.1048" transform="matrix(.33828 0 0 .33828 5.492 -326.861)"/>
    </g>
    <path d="m56.828 1043.388 13 8.5 13-8.5-13-8.5z" style="opacity:1;fill:#ffba00;fill-opacity:1;stroke-width:2.98558" transform="matrix(.33828 0 0 .33828 -2.82 -326.861)"/>
  </g>
</svg>
