<svg xmlns="http://www.w3.org/2000/svg" width="32" height="32" viewBox="0 0 32 32">
  <defs>
    <filter id="a" width="1.303" height="1.288" x="-.151" y="-.144" style="color-interpolation-filters:sRGB">
      <feGaussianBlur stdDeviation="1.204"/>
    </filter>
  </defs>
  <g style="display:inline" transform="translate(-175.207 -846.52)">
    <path d="M190.5 855.375c-4.13 0-7.5 3.37-7.5 7.5s3.37 7.5 7.5 7.5c1.263 0 2.404-.386 3.438-.937l.28.28c-.383.373-.383 1.066 0 1.438l4 4c.373.384 1.066.384 1.438 0l2.125-2.125c.384-.372.384-1.065 0-1.437l-4-4c-.37-.366-1.036-.366-1.406 0l-.125-.125c1.029-1.277 1.75-2.823 1.75-4.594 0-4.13-3.37-7.5-7.5-7.5" style="color:#000;font-style:normal;font-variant:normal;font-weight:400;font-stretch:normal;font-size:medium;line-height:normal;font-family:Sans;-inkscape-font-specification:Sans;text-indent:0;text-align:start;text-decoration:none;text-decoration-line:none;letter-spacing:normal;word-spacing:normal;text-transform:none;direction:ltr;block-progression:tb;writing-mode:lr-tb;baseline-shift:baseline;text-anchor:start;display:inline;overflow:visible;visibility:visible;opacity:.2;fill:#000;fill-opacity:1;fill-rule:nonzero;stroke:none;stroke-width:2;marker:none;filter:url(#a);enable-background:accumulate"/>
    <path d="M190.5 854.375c-4.13 0-7.5 3.37-7.5 7.5s3.37 7.5 7.5 7.5c1.263 0 2.404-.386 3.438-.937l.28.28a1 1 0 0 0 0 1.438l4 4a1 1 0 0 0 1.438 0l2.125-2.125a1 1 0 0 0 0-1.437l-4-4a1 1 0 0 0-1.406 0l-.125-.125c1.029-1.277 1.75-2.823 1.75-4.594 0-4.13-3.37-7.5-7.5-7.5" style="color:#000;font-style:normal;font-variant:normal;font-weight:400;font-stretch:normal;font-size:medium;line-height:normal;font-family:Sans;-inkscape-font-specification:Sans;text-indent:0;text-align:start;text-decoration:none;text-decoration-line:none;letter-spacing:normal;word-spacing:normal;text-transform:none;direction:ltr;block-progression:tb;writing-mode:lr-tb;baseline-shift:baseline;text-anchor:start;display:inline;overflow:visible;visibility:visible;fill:#151515;fill-opacity:1;fill-rule:nonzero;stroke:none;stroke-width:2;marker:none;enable-background:accumulate"/>
    <path d="M190.5 855.375a6.5 6.5 0 0 0 0 13c1.362 0 2.612-.44 3.656-1.156l1.5 1.5-.719.718 4 4 2.125-2.125-4-4-.718.688-1.406-1.406c1.26-1.186 2.062-2.852 2.062-4.719a6.5 6.5 0 0 0-6.5-6.5" style="fill:#fff;fill-opacity:1;stroke:none"/>
    <circle cx="603.5" cy="474.862" r="5.5" fill="none" style="fill:#000;fill-opacity:0;stroke:none" transform="translate(-413.001 387)"/>
    <path d="M190 858.375v3h-3v1h3v3h1v-3h3v-1h-3v-3z" style="fill:#151515;fill-opacity:1;stroke:none"/>
  </g>
</svg>
