<svg xmlns="http://www.w3.org/2000/svg" width="32" height="32" viewBox="0 0 32 32">
  <defs>
    <filter id="a" width="1.24" height="1.24" x="-.12" y="-.12" color-interpolation-filters="sRGB">
      <feGaussianBlur stdDeviation=".65"/>
    </filter>
    <filter id="b" width="1.337" height="1.186" x="-.168" y="-.093" style="color-interpolation-filters:sRGB">
      <feGaussianBlur stdDeviation=".755"/>
    </filter>
  </defs>
  <circle cx="21.94" cy="23.862" r="6.5" style="opacity:.25;filter:url(#a)"/>
  <circle cx="21.5" cy="23.462" r="6.5" style="fill:#fff"/>
  <path d="M20.938 17.962c-2.773.282-4.937 2.65-4.937 5.496a5.5 5.5 0 0 0 5.5 5.496c3.037 0 5.5-2.46 5.5-5.496a5.5 5.5 0 0 0-5.5-5.496c-.19 0-.378-.019-.563 0" style="fill:#1976d2;fill-opacity:1"/>
  <g style="fill:#fff">
    <path d="M18 1041.4h7v1h-7zm0 2h7v1h-7zm0 2h7v1h-7z" style="paint-order:stroke fill markers" transform="translate(0 -1020.4)"/>
  </g>
  <path d="M5.379 5.07a1 1 0 0 0-1.033 1v13a1 1 0 0 0 .449.834l6.758 4.46a1 1 0 0 0 1.52-.59l1.997-7.797a1 1 0 0 0-.226-.92l-8.758-9.66a1 1 0 0 0-.707-.327m.967 3.592L13 16l-1.518 5.92-5.136-3.39z" style="color:#000;font-style:normal;font-variant:normal;font-weight:400;font-stretch:normal;font-size:medium;line-height:normal;font-family:sans-serif;font-variant-ligatures:normal;font-variant-position:normal;font-variant-caps:normal;font-variant-numeric:normal;font-variant-alternates:normal;font-feature-settings:normal;text-indent:0;text-align:start;text-decoration:none;text-decoration-line:none;text-decoration-style:solid;text-decoration-color:#000;letter-spacing:normal;word-spacing:normal;text-transform:none;writing-mode:lr-tb;direction:ltr;text-orientation:mixed;dominant-baseline:auto;baseline-shift:baseline;text-anchor:start;white-space:normal;shape-padding:0;clip-rule:nonzero;display:inline;overflow:visible;visibility:visible;opacity:.35;isolation:auto;mix-blend-mode:normal;color-interpolation:sRGB;color-interpolation-filters:linearRGB;solid-color:#000;solid-opacity:1;vector-effect:none;fill:#000;fill-opacity:1;fill-rule:nonzero;stroke:none;stroke-width:2;stroke-linecap:round;stroke-linejoin:round;stroke-miterlimit:4;stroke-dasharray:none;stroke-dashoffset:0;stroke-opacity:1;paint-order:stroke fill markers;filter:url(#b);color-rendering:auto;image-rendering:auto;shape-rendering:auto;text-rendering:auto;enable-background:accumulate"/>
  <path d="M5.033 4A1 1 0 0 0 4 5v13a1 1 0 0 0 .45.834l6.757 4.459a1 1 0 0 0 1.52-.588l1.998-7.8a1 1 0 0 0-.227-.92L5.74 4.329A1 1 0 0 0 5.033 4M6 7.592l6.654 7.338-1.517 5.92L6 17.46z" style="color:#000;font-style:normal;font-variant:normal;font-weight:400;font-stretch:normal;font-size:medium;line-height:normal;font-family:sans-serif;font-variant-ligatures:normal;font-variant-position:normal;font-variant-caps:normal;font-variant-numeric:normal;font-variant-alternates:normal;font-feature-settings:normal;text-indent:0;text-align:start;text-decoration:none;text-decoration-line:none;text-decoration-style:solid;text-decoration-color:#000;letter-spacing:normal;word-spacing:normal;text-transform:none;writing-mode:lr-tb;direction:ltr;text-orientation:mixed;dominant-baseline:auto;baseline-shift:baseline;text-anchor:start;white-space:normal;shape-padding:0;clip-rule:nonzero;display:inline;overflow:visible;visibility:visible;opacity:1;isolation:auto;mix-blend-mode:normal;color-interpolation:sRGB;color-interpolation-filters:linearRGB;solid-color:#000;solid-opacity:1;vector-effect:none;fill:#fff;fill-opacity:1;fill-rule:nonzero;stroke:none;stroke-width:2;stroke-linecap:round;stroke-linejoin:round;stroke-miterlimit:4;stroke-dasharray:none;stroke-dashoffset:0;stroke-opacity:1;paint-order:stroke fill markers;color-rendering:auto;image-rendering:auto;shape-rendering:auto;text-rendering:auto;enable-background:accumulate"/>
  <path d="M5 5v13l6.757 4.457 2-7.8z" style="opacity:1;fill:#333;fill-opacity:1;stroke:none;stroke-width:2.23741;stroke-linecap:round;stroke-linejoin:round;stroke-miterlimit:4;stroke-dasharray:none;stroke-opacity:1;paint-order:stroke fill markers"/>
</svg>
