<svg xmlns="http://www.w3.org/2000/svg" width="32" height="32" viewBox="0 0 32 32">
  <defs>
    <filter id="a" width="1.257" height="1.257" x="-.128" y="-.128" style="color-interpolation-filters:sRGB">
      <feGaussianBlur stdDeviation="1.177"/>
    </filter>
  </defs>
  <g style="display:inline" transform="translate(-320.05 -741.5)">
    <path d="M336.125 747.437c-6.075 0-11 4.925-11 11s4.925 11 11 11 11-4.924 11-11-4.925-11-11-11" style="color:#000;font-style:normal;font-variant:normal;font-weight:400;font-stretch:normal;font-size:medium;line-height:normal;font-family:Sans;-inkscape-font-specification:Sans;text-indent:0;text-align:start;text-decoration:none;text-decoration-line:none;letter-spacing:normal;word-spacing:normal;text-transform:none;direction:ltr;block-progression:tb;writing-mode:lr-tb;baseline-shift:baseline;text-anchor:start;display:inline;overflow:visible;visibility:visible;opacity:.2;fill:#000;fill-opacity:1;fill-rule:nonzero;stroke:none;stroke-width:2;marker:none;filter:url(#a);enable-background:accumulate"/>
    <circle cx="375" cy="487.362" r="11" style="fill:#fff;fill-opacity:1;stroke:none" transform="translate(-38.875 270.062)"/>
    <path d="M331.125 748.777c-4.783 2.762-6.422 8.877-3.66 13.66s8.877 6.422 13.66 3.66c4.783-2.76 6.421-8.877 3.66-13.66s-8.877-6.421-13.66-3.66m1 1.732c3.532-2.039 7.974-1.075 10.374 2.094l-13.748 7.937c-1.545-3.663-.158-7.992 3.374-10.03m-2.374 11.763 13.748-7.937c1.544 3.663.158 7.991-3.374 10.03-3.532 2.04-7.974 1.076-10.374-2.093" style="fill:#ed1515;fill-opacity:1;stroke:none"/>
  </g>
</svg>
